<?xml version="1.0" encoding="utf-8"?>
<!-- Generator: Adobe Illustrator 17.0.0, SVG Export Plug-In . SVG Version: 6.00 Build 0)  -->
<!DOCTYPE svg PUBLIC "-//W3C//DTD SVG 1.1//EN" "http://www.w3.org/Graphics/SVG/1.1/DTD/svg11.dtd">
<svg version="1.1" id="Layer_1" xmlns="http://www.w3.org/2000/svg" xmlns:xlink="http://www.w3.org/1999/xlink" x="0px" y="0px"
	 width="512px" height="512px" viewBox="0 0 512 512" enable-background="new 0 0 512 512" xml:space="preserve">
<rect x="205" y="359" fill="#ADADAD" width="111" height="118"/>
<path fill="#C6C4C4" d="M501,345.58c0,13.763-9.478,25.42-21.787,25.42H32.356C20.047,371,10,359.343,10,345.58V68.963
	C10,55.2,20.047,44,32.356,44h446.857C491.522,44,501,55.2,501,68.963V345.58z"/>
<path fill="#C6C4C4" d="M424,468c0,9.941-6.641,18-14.833,18H102.626c-8.192,0-14.833-8.059-14.833-18l0,0
	c0-9.941,6.641-18,14.833-18h306.542C417.359,450,424,458.059,424,468L424,468z"/>
<path fill="#DEF9FC" d="M488,334.485c0,12.711-8.677,23.515-20.359,23.515H43.542C31.86,358,23,347.196,23,334.485V79.017
	C23,66.306,31.86,56,43.542,56h424.099C479.323,56,488,66.306,488,79.017V334.485z"/>
<path fill="#B8CCCC" d="M112.167,300.333L229,261l114.667-78.667L465.849,83.64L483.667,109L483,337c0,0-1.26,16.667-17.234,16.667
	C449.791,353.667,165,353,165,353L112.167,300.333z"/>
<ellipse transform="matrix(-0.8204 0.5717 -0.5717 -0.8204 706.0559 134.4541)" fill="#CC9340" cx="331.914" cy="178.103" rx="162.5" ry="20.69"/>
<path fill="#96692D" d="M465.234,85.195c6.533,9.375-47.86,58.571-121.491,109.883s-138.616,85.309-145.149,75.934"/>
<path fill="#AF342B" d="M214.694,312.4c22.208-11.47,30.46-39.03,18.793-60.866s-38.997-29.989-61.043-18.21
	c0,0-21.778,14.009-24.444,32.343S137.333,295,112,300.333C112,300.333,169.387,335.8,214.694,312.4z"/>
<path fill="#7F1616" d="M112,300.333c0,0,74.124,1.167,86.062-19.833c11.938-21,1.36-29.796,24.399-42.398
	c0,0,35.755,28.915,1.314,68.073c0,0-16.993,18.727-62.884,12.443C160.891,318.618,125.667,310.333,112,300.333z"/>
</svg>
