<?xml version="1.0" encoding="utf-8"?>
<!-- Generator: Adobe Illustrator 17.0.0, SVG Export Plug-In . SVG Version: 6.00 Build 0)  -->
<!DOCTYPE svg PUBLIC "-//W3C//DTD SVG 1.1//EN" "http://www.w3.org/Graphics/SVG/1.1/DTD/svg11.dtd">
<svg version="1.1" xmlns="http://www.w3.org/2000/svg" xmlns:xlink="http://www.w3.org/1999/xlink" x="0px" y="0px" width="512px"
	 height="512px" viewBox="0 0 512 512" enable-background="new 0 0 512 512" xml:space="preserve">
<g id="Layer_1">
	<rect y="129.982" fill="none" width="512" height="272.414"/>
	<text transform="matrix(1 0 0 1 124.896 333.3802)"><tspan x="0" y="0" fill="#EAA22D" font-family="'Calibri'" font-size="300">(</tspan><tspan x="90.967" y="0" font-family="'Calibri'" font-size="300">;</tspan><tspan x="171.24" y="0" fill="#EAA22D" font-family="'Calibri'" font-size="300">)</tspan></text>
</g>
<g id="Layer_2">
	<path fill="#EFE054" d="M151.175,14.837c0,0,12.593,13.562,0,34.873c0,0-22.28-1.937-28.738,3.229s-10.979,30.353-11.624,45.206
		c-0.646,14.853,0,67.809,0,67.809s0.646,29.061-7.104,46.498s-6.458,18.082-17.437,27.77c0,0-15.499,11.624-24.54,14.208
		c0,0,15.499,2.583,23.249,10.333c0,0,13.562,12.27,18.728,29.061c5.166,16.791,6.781,16.468,7.104,63.289
		c0.323,46.821,0,64.257,0.323,68.455c0.323,4.198,3.229,32.936,9.687,37.457c6.458,4.521,5.166,6.135,30.03,6.135
		c0,0,6.027,1.937,5.92,15.499c-0.108,13.562-5.597,18.082-5.597,18.082s-4.198,2.26-22.603,1.615s-23.249-2.583-30.03-5.812
		c0,0-15.176-7.427-22.926-28.092c0,0-7.104-19.374-7.427-48.435c-0.323-29.061,0-84.6-0.646-89.121c0,0,1.937-51.341-33.582-61.028
		c0,0-10.333-1.292-13.562-4.521c0,0-4.521-9.364-2.26-23.895c0,0-0.323-5.812,10.01-7.75c0,0,20.989-0.969,31.644-22.603
		c0,0,6.458-20.02,7.427-28.092c0.969-8.073,0.969-61.351,0.969-62.966s0.323-48.758,2.583-51.341c0,0,3.552-26.801,11.624-34.228
		c0,0,9.364-16.145,27.124-19.697C109.521,16.774,118.885,10.027,151.175,14.837z"/>
	<path fill="#EFE054" d="M361.045,15.328c0,0-12.458,13.417,0,34.5c0,0,22.042-1.917,28.431,3.194s10.861,30.028,11.5,44.722
		s0,67.083,0,67.083s-0.639,28.75,7.028,46s6.389,17.889,17.25,27.472c0,0,15.333,11.5,24.278,14.056c0,0-15.333,2.556-23,10.222
		c0,0-13.417,12.139-18.528,28.75c-5.111,16.611-6.708,16.292-7.028,62.611c-0.319,46.319,0,63.569-0.319,67.722
		c-0.319,4.153-3.194,32.583-9.583,37.056c-6.389,4.472-5.111,6.069-29.708,6.069c0,0-5.963,1.917-5.856,15.333
		c0.106,13.417,5.537,17.889,5.537,17.889s4.153,2.236,22.361,1.597s23-2.556,29.708-5.75c0,0,15.014-7.347,22.681-27.792
		c0,0,7.028-19.167,7.347-47.917c0.319-28.75,0-83.694,0.639-88.167c0,0-1.917-50.792,33.222-60.375c0,0,10.222-1.278,13.417-4.472
		c0,0,4.472-9.264,2.236-23.639c0,0,0.319-5.75-9.903-7.667c0,0-20.764-0.958-31.306-22.361c0,0-6.389-19.806-7.347-27.792
		s-0.958-60.694-0.958-62.292c0-1.597-0.319-48.236-2.556-50.792c0,0-3.514-26.514-11.5-33.861c0,0-9.264-15.972-26.833-19.486
		C402.253,17.245,392.99,10.57,361.045,15.328z"/>
</g>
</svg>
